<?xml version="1.0" encoding="UTF-8" standalone="no"?>
<!-- Created with Inkscape (http://www.inkscape.org/) -->
<svg
   xmlns:dc="http://purl.org/dc/elements/1.1/"
   xmlns:cc="http://web.resource.org/cc/"
   xmlns:rdf="http://www.w3.org/1999/02/22-rdf-syntax-ns#"
   xmlns:svg="http://www.w3.org/2000/svg"
   xmlns="http://www.w3.org/2000/svg"
   xmlns:xlink="http://www.w3.org/1999/xlink"
   xmlns:sodipodi="http://sodipodi.sourceforge.net/DTD/sodipodi-0.dtd"
   xmlns:inkscape="http://www.inkscape.org/namespaces/inkscape"
   width="20"
   height="20"
   id="svg2160"
   sodipodi:version="0.32"
   inkscape:version="0.45"
   version="1.0"
   sodipodi:docbase="/home/arno/latexdraw/TexDraw/graphisme"
   sodipodi:docname="distVertTop.svg"
   inkscape:output_extension="org.inkscape.output.svg.inkscape"
   inkscape:export-filename="/home/arno/latexdraw/TexDraw/res/distrib/distVertTop.png"
   inkscape:export-xdpi="97"
   inkscape:export-ydpi="97"
   sodipodi:modified="true">
  <defs
     id="defs2162">
    <marker
       inkscape:stockid="TriangleInM"
       orient="auto"
       refY="0.0"
       refX="0.0"
       id="TriangleInM"
       style="overflow:visible">
      <path
         id="path3245"
         d="M 5.77,0.0 L -2.88,5.0 L -2.88,-5.0 L 5.77,0.0 z "
         style="fill-rule:evenodd;stroke:#000000;stroke-width:1.0pt;marker-start:none"
         transform="scale(-0.4)" />
    </marker>
    <marker
       inkscape:stockid="TriangleOutM"
       orient="auto"
       refY="0.0"
       refX="0.0"
       id="TriangleOutM"
       style="overflow:visible">
      <path
         id="path3254"
         d="M 5.77,0.0 L -2.88,5.0 L -2.88,-5.0 L 5.77,0.0 z "
         style="fill-rule:evenodd;stroke:#000000;stroke-width:1.0pt;marker-start:none"
         transform="scale(0.4)" />
    </marker>
    <marker
       inkscape:stockid="TriangleInS"
       orient="auto"
       refY="0.0"
       refX="0.0"
       id="TriangleInS"
       style="overflow:visible">
      <path
         id="path3248"
         d="M 5.77,0.0 L -2.88,5.0 L -2.88,-5.0 L 5.77,0.0 z "
         style="fill-rule:evenodd;stroke:#000000;stroke-width:1.0pt;marker-start:none"
         transform="scale(-0.2)" />
    </marker>
    <marker
       inkscape:stockid="Arrow1Sstart"
       orient="auto"
       refY="0.0"
       refX="0.0"
       id="Arrow1Sstart"
       style="overflow:visible">
      <path
         id="path3165"
         d="M 0.0,0.0 L 5.0,-5.0 L -12.5,0.0 L 5.0,5.0 L 0.0,0.0 z "
         style="fill-rule:evenodd;stroke:#000000;stroke-width:1.0pt;marker-start:none"
         transform="scale(0.2) translate(6,0)" />
    </marker>
    <marker
       inkscape:stockid="Arrow1Send"
       orient="auto"
       refY="0.0"
       refX="0.0"
       id="Arrow1Send"
       style="overflow:visible;">
      <path
         id="path3168"
         d="M 0.0,0.0 L 5.0,-5.0 L -12.5,0.0 L 5.0,5.0 L 0.0,0.0 z "
         style="fill-rule:evenodd;stroke:#000000;stroke-width:1.0pt;marker-start:none;"
         transform="scale(0.2) rotate(180) translate(6,0)" />
    </marker>
    <marker
       inkscape:stockid="Arrow2Mend"
       orient="auto"
       refY="0.0"
       refX="0.0"
       id="Arrow2Mend"
       style="overflow:visible;">
      <path
         id="path3180"
         style="font-size:12.0;fill-rule:evenodd;stroke-width:0.62500000;stroke-linejoin:round;"
         d="M 8.7185878,4.0337352 L -2.2072895,0.016013256 L 8.7185884,-4.0017078 C 6.9730900,-1.6296469 6.9831476,1.6157441 8.7185878,4.0337352 z "
         transform="scale(0.6) rotate(180) translate(0,0)" />
    </marker>
    <marker
       inkscape:stockid="Arrow2Sstart"
       orient="auto"
       refY="0.0"
       refX="0.0"
       id="Arrow2Sstart"
       style="overflow:visible">
      <path
         id="path3183"
         style="font-size:12.0;fill-rule:evenodd;stroke-width:0.62500000;stroke-linejoin:round"
         d="M 8.7185878,4.0337352 L -2.2072895,0.016013256 L 8.7185884,-4.0017078 C 6.9730900,-1.6296469 6.9831476,1.6157441 8.7185878,4.0337352 z "
         transform="scale(0.3) translate(-2.3,0)" />
    </marker>
    <linearGradient
       inkscape:collect="always"
       id="linearGradient7041">
      <stop
         style="stop-color:#000000;stop-opacity:1;"
         offset="0"
         id="stop7043" />
      <stop
         style="stop-color:#000000;stop-opacity:0;"
         offset="1"
         id="stop7045" />
    </linearGradient>
    <linearGradient
       id="linearGradient6060">
      <stop
         style="stop-color:#e30000;stop-opacity:1;"
         offset="0"
         id="stop6062" />
      <stop
         style="stop-color:#000000;stop-opacity:0;"
         offset="1"
         id="stop6064" />
    </linearGradient>
    <linearGradient
       id="linearGradient3141">
      <stop
         style="stop-color:#2ba6ff;stop-opacity:1;"
         offset="0"
         id="stop3143" />
      <stop
         style="stop-color:#2ba6ff;stop-opacity:0;"
         offset="1"
         id="stop3145" />
    </linearGradient>
    <linearGradient
       inkscape:collect="always"
       xlink:href="#linearGradient3141"
       id="linearGradient3147"
       x1="9.227273"
       y1="1.2272727"
       x2="18.90909"
       y2="7.9545455"
       gradientUnits="userSpaceOnUse"
       gradientTransform="matrix(1.0409864,0,0,0.9024551,0.5901355,-1.0610481)" />
    <linearGradient
       inkscape:collect="always"
       xlink:href="#linearGradient6060"
       id="linearGradient6066"
       x1="7.3033009"
       y1="9.2715693"
       x2="15.542778"
       y2="14.960565"
       gradientUnits="userSpaceOnUse"
       gradientTransform="matrix(0.9188009,0,0,0.798639,1.1495937,0.8241865)" />
    <linearGradient
       inkscape:collect="always"
       xlink:href="#linearGradient7041"
       id="linearGradient7047"
       x1="7.1425943"
       y1="13.871486"
       x2="18.832048"
       y2="18.628386"
       gradientUnits="userSpaceOnUse"
       gradientTransform="matrix(0.9736927,0,0,0.7957954,1.0315792,4.6566696)" />
    <linearGradient
       inkscape:collect="always"
       xlink:href="#linearGradient7041"
       id="linearGradient2202"
       gradientUnits="userSpaceOnUse"
       gradientTransform="matrix(0.9736927,0,0,0.7957954,1.0798756,-15.393218)"
       x1="7.1425943"
       y1="13.871486"
       x2="18.832048"
       y2="18.628386" />
    <linearGradient
       inkscape:collect="always"
       xlink:href="#linearGradient6060"
       id="linearGradient2206"
       gradientUnits="userSpaceOnUse"
       gradientTransform="matrix(0.9188009,0,0,0.798639,1.1978901,-19.225701)"
       x1="7.3033009"
       y1="9.2715693"
       x2="15.542778"
       y2="14.960565" />
    <linearGradient
       inkscape:collect="always"
       xlink:href="#linearGradient3141"
       id="linearGradient2209"
       gradientUnits="userSpaceOnUse"
       gradientTransform="matrix(1.0409864,0,0,0.9024551,0.6384319,-21.110936)"
       x1="9.227273"
       y1="1.2272727"
       x2="18.90909"
       y2="7.9545455" />
  </defs>
  <sodipodi:namedview
     id="base"
     pagecolor="#ffffff"
     bordercolor="#666666"
     borderopacity="1.0"
     inkscape:pageopacity="0.0"
     inkscape:pageshadow="2"
     inkscape:zoom="31.112698"
     inkscape:cx="11.760369"
     inkscape:cy="18.658293"
     inkscape:current-layer="layer1"
     showgrid="true"
     inkscape:document-units="px"
     inkscape:grid-bbox="true"
     width="20px"
     height="20px"
     inkscape:window-width="1280"
     inkscape:window-height="751"
     inkscape:window-x="0"
     inkscape:window-y="24" />
  <metadata
     id="metadata2165">
    <rdf:RDF>
      <cc:Work
         rdf:about="">
        <dc:format>image/svg+xml</dc:format>
        <dc:type
           rdf:resource="http://purl.org/dc/dcmitype/StillImage" />
      </cc:Work>
    </rdf:RDF>
  </metadata>
  <g
     id="layer1"
     inkscape:label="Layer 1"
     inkscape:groupmode="layer">
    <rect
       style="fill:url(#linearGradient2209);fill-opacity:1;fill-rule:nonzero;stroke:#646464;stroke-width:0.42259255;stroke-miterlimit:4;stroke-dasharray:none;stroke-opacity:1"
       id="rect2168"
       width="15.577408"
       height="3.5774074"
       x="3.2595923"
       y="-18.838593"
       transform="matrix(0,1,-1,0,0,0)" />
    <rect
       style="fill:url(#linearGradient2206);fill-opacity:1;fill-rule:nonzero;stroke:#646464;stroke-width:0.35276866;stroke-miterlimit:4;stroke-dasharray:none;stroke-opacity:1"
       id="rect4118"
       width="10.647231"
       height="3.6472311"
       x="3.2246804"
       y="-11.873503"
       transform="matrix(0,1,-1,0,0,0)" />
    <rect
       style="fill:url(#linearGradient2202);fill-opacity:1;fill-rule:nonzero;stroke:#646464;stroke-width:0.3963587;stroke-miterlimit:4;stroke-dasharray:none;stroke-opacity:1"
       id="rect6068"
       width="13.603642"
       height="3.6036413"
       x="3.2464755"
       y="-4.8517089"
       transform="matrix(0,1,-1,0,0,0)" />
    <path
       style="fill:none;fill-rule:evenodd;stroke:#ff0000;stroke-width:1.367;stroke-linecap:butt;stroke-linejoin:miter;stroke-miterlimit:4;stroke-dasharray:none;stroke-dashoffset:0;stroke-opacity:1"
       d="M 18.854175,13.287442 C 18.854175,12.718496 18.854175,12.14955 18.854175,11.580604 C 18.854175,10.918558 18.854175,10.256511 18.854175,9.5944667 C 18.854175,9.1082759 18.854175,8.6220859 18.854175,8.1358958 C 18.854175,7.4738501 18.854175,6.8118009 18.854175,6.1497551 C 18.854175,5.5704648 18.854175,4.9911745 18.854175,4.4118835 C 18.854175,3.842938 18.854175,3.2739919 18.854175,2.7050463 C 18.854175,2.1361008 18.854175,1.5671539 18.854175,0.9982084"
       id="path7049" />
    <path
       style="fill:none;fill-rule:evenodd;stroke:#ff0000;stroke-width:1.367;stroke-linecap:butt;stroke-linejoin:miter;stroke-miterlimit:4;stroke-dasharray:none;stroke-dashoffset:0;stroke-opacity:1"
       d="M 11.854875,13.263981 C 11.854875,12.695035 11.854875,12.126089 11.854875,11.557143 C 11.854875,10.895097 11.854875,10.23305 11.854875,9.5710055 C 11.854875,9.0848147 11.854875,8.5986247 11.854875,8.1124346 C 11.854875,7.4503889 11.854875,6.7883397 11.854875,6.1262939 C 11.854875,5.5470036 11.854875,4.9677133 11.854875,4.3884223 C 11.854875,3.8194768 11.854875,3.2505307 11.854875,2.6815851 C 11.854875,2.1126396 11.854875,1.5436927 11.854875,0.9747472"
       id="path2173" />
    <path
       style="fill:none;fill-rule:evenodd;stroke:#ff0000;stroke-width:1.367;stroke-linecap:butt;stroke-linejoin:miter;stroke-miterlimit:4;stroke-dasharray:none;stroke-dashoffset:0;stroke-opacity:1"
       d="M 4.847475,13.288529 C 4.847475,12.719583 4.847475,12.150637 4.847475,11.581691 C 4.847475,10.919645 4.847475,10.257598 4.847475,9.5955538 C 4.847475,9.109363 4.847475,8.623173 4.847475,8.1369829 C 4.847475,7.4749372 4.847475,6.812888 4.847475,6.1508422 C 4.847475,5.5715519 4.847475,4.9922616 4.847475,4.4129706 C 4.847475,3.8440251 4.847475,3.275079 4.847475,2.7061334 C 4.847475,2.1371879 4.847475,1.568241 4.847475,0.99929542"
       id="path2175" />
    <path
       style="fill:none;fill-rule:evenodd;stroke:#000000;stroke-width:0.44043514;stroke-linecap:butt;stroke-linejoin:miter;marker-start:url(#TriangleInM);marker-end:url(#TriangleOutM);stroke-miterlimit:4;stroke-dasharray:none;stroke-opacity:1"
       d="M 16.937581,1.3698139 C 16.852025,1.3698139 16.766469,1.3698139 16.680912,1.3698139 C 16.253237,1.3698139 15.82556,1.3698139 15.397884,1.3698139 C 14.983573,1.3698139 14.569262,1.3698139 14.154951,1.3698139 C 14.042951,1.3698139 13.930951,1.3698139 13.818952,1.3698139"
       id="path2177" />
    <path
       style="fill:none;fill-rule:evenodd;stroke:#000000;stroke-width:0.44043514;stroke-linecap:butt;stroke-linejoin:miter;marker-start:url(#TriangleInM);marker-end:url(#TriangleOutM);stroke-miterlimit:4;stroke-dasharray:none;stroke-opacity:1"
       d="M 9.9177074,1.3660863 C 9.8321515,1.3660863 9.7465949,1.3660863 9.6610382,1.3660863 C 9.2333626,1.3660863 8.8056861,1.3660863 8.3780104,1.3660863 C 7.9636995,1.3660863 7.5493879,1.3660863 7.135077,1.3660863 C 7.0230772,1.3660863 6.9110774,1.3660863 6.7990776,1.3660863"
       id="path5300" />
  </g>
</svg>
