<?xml version="1.0" encoding="UTF-8" standalone="no"?>
<!-- Created with Inkscape (http://www.inkscape.org/) -->
<svg
   xmlns:dc="http://purl.org/dc/elements/1.1/"
   xmlns:cc="http://web.resource.org/cc/"
   xmlns:rdf="http://www.w3.org/1999/02/22-rdf-syntax-ns#"
   xmlns:svg="http://www.w3.org/2000/svg"
   xmlns="http://www.w3.org/2000/svg"
   xmlns:xlink="http://www.w3.org/1999/xlink"
   xmlns:sodipodi="http://sodipodi.sourceforge.net/DTD/sodipodi-0.dtd"
   xmlns:inkscape="http://www.inkscape.org/namespaces/inkscape"
   width="20"
   height="20"
   id="svg2160"
   sodipodi:version="0.32"
   inkscape:version="0.45"
   version="1.0"
   sodipodi:docbase="/home/arno/latexdraw/TexDraw/graphisme"
   sodipodi:docname="distHorizEqual.svg"
   inkscape:output_extension="org.inkscape.output.svg.inkscape"
   inkscape:export-filename="/home/arno/latexdraw/TexDraw/res/distrib/distHorizEqual.png"
   inkscape:export-xdpi="97"
   inkscape:export-ydpi="97"
   sodipodi:modified="true">
  <defs
     id="defs2162">
    <marker
       inkscape:stockid="TriangleInM"
       orient="auto"
       refY="0.0"
       refX="0.0"
       id="TriangleInM"
       style="overflow:visible">
      <path
         id="path3245"
         d="M 5.77,0.0 L -2.88,5.0 L -2.88,-5.0 L 5.77,0.0 z "
         style="fill-rule:evenodd;stroke:#000000;stroke-width:1.0pt;marker-start:none"
         transform="scale(-0.4)" />
    </marker>
    <marker
       inkscape:stockid="TriangleOutM"
       orient="auto"
       refY="0.0"
       refX="0.0"
       id="TriangleOutM"
       style="overflow:visible">
      <path
         id="path3254"
         d="M 5.77,0.0 L -2.88,5.0 L -2.88,-5.0 L 5.77,0.0 z "
         style="fill-rule:evenodd;stroke:#000000;stroke-width:1.0pt;marker-start:none"
         transform="scale(0.4)" />
    </marker>
    <marker
       inkscape:stockid="TriangleInS"
       orient="auto"
       refY="0.0"
       refX="0.0"
       id="TriangleInS"
       style="overflow:visible">
      <path
         id="path3248"
         d="M 5.77,0.0 L -2.88,5.0 L -2.88,-5.0 L 5.77,0.0 z "
         style="fill-rule:evenodd;stroke:#000000;stroke-width:1.0pt;marker-start:none"
         transform="scale(-0.2)" />
    </marker>
    <marker
       inkscape:stockid="Arrow1Sstart"
       orient="auto"
       refY="0.0"
       refX="0.0"
       id="Arrow1Sstart"
       style="overflow:visible">
      <path
         id="path3165"
         d="M 0.0,0.0 L 5.0,-5.0 L -12.5,0.0 L 5.0,5.0 L 0.0,0.0 z "
         style="fill-rule:evenodd;stroke:#000000;stroke-width:1.0pt;marker-start:none"
         transform="scale(0.2) translate(6,0)" />
    </marker>
    <marker
       inkscape:stockid="Arrow1Send"
       orient="auto"
       refY="0.0"
       refX="0.0"
       id="Arrow1Send"
       style="overflow:visible;">
      <path
         id="path3168"
         d="M 0.0,0.0 L 5.0,-5.0 L -12.5,0.0 L 5.0,5.0 L 0.0,0.0 z "
         style="fill-rule:evenodd;stroke:#000000;stroke-width:1.0pt;marker-start:none;"
         transform="scale(0.2) rotate(180) translate(6,0)" />
    </marker>
    <marker
       inkscape:stockid="Arrow2Mend"
       orient="auto"
       refY="0.0"
       refX="0.0"
       id="Arrow2Mend"
       style="overflow:visible;">
      <path
         id="path3180"
         style="font-size:12.0;fill-rule:evenodd;stroke-width:0.62500000;stroke-linejoin:round;"
         d="M 8.7185878,4.0337352 L -2.2072895,0.016013256 L 8.7185884,-4.0017078 C 6.9730900,-1.6296469 6.9831476,1.6157441 8.7185878,4.0337352 z "
         transform="scale(0.6) rotate(180) translate(0,0)" />
    </marker>
    <marker
       inkscape:stockid="Arrow2Sstart"
       orient="auto"
       refY="0.0"
       refX="0.0"
       id="Arrow2Sstart"
       style="overflow:visible">
      <path
         id="path3183"
         style="font-size:12.0;fill-rule:evenodd;stroke-width:0.62500000;stroke-linejoin:round"
         d="M 8.7185878,4.0337352 L -2.2072895,0.016013256 L 8.7185884,-4.0017078 C 6.9730900,-1.6296469 6.9831476,1.6157441 8.7185878,4.0337352 z "
         transform="scale(0.3) translate(-2.3,0)" />
    </marker>
    <linearGradient
       inkscape:collect="always"
       id="linearGradient7041">
      <stop
         style="stop-color:#000000;stop-opacity:1;"
         offset="0"
         id="stop7043" />
      <stop
         style="stop-color:#000000;stop-opacity:0;"
         offset="1"
         id="stop7045" />
    </linearGradient>
    <linearGradient
       id="linearGradient6060">
      <stop
         style="stop-color:#e30000;stop-opacity:1;"
         offset="0"
         id="stop6062" />
      <stop
         style="stop-color:#000000;stop-opacity:0;"
         offset="1"
         id="stop6064" />
    </linearGradient>
    <linearGradient
       id="linearGradient3141">
      <stop
         style="stop-color:#2ba6ff;stop-opacity:1;"
         offset="0"
         id="stop3143" />
      <stop
         style="stop-color:#2ba6ff;stop-opacity:0;"
         offset="1"
         id="stop3145" />
    </linearGradient>
    <linearGradient
       inkscape:collect="always"
       xlink:href="#linearGradient3141"
       id="linearGradient3147"
       x1="9.227273"
       y1="1.2272727"
       x2="18.90909"
       y2="7.9545455"
       gradientUnits="userSpaceOnUse"
       gradientTransform="matrix(1.0409864,0,0,0.9024551,0.5901355,-1.0610481)" />
    <linearGradient
       inkscape:collect="always"
       xlink:href="#linearGradient6060"
       id="linearGradient6066"
       x1="7.3033009"
       y1="9.2715693"
       x2="15.542778"
       y2="14.960565"
       gradientUnits="userSpaceOnUse"
       gradientTransform="matrix(0.9188009,0,0,0.798639,1.1495937,0.8241865)" />
    <linearGradient
       inkscape:collect="always"
       xlink:href="#linearGradient7041"
       id="linearGradient7047"
       x1="7.1425943"
       y1="13.871486"
       x2="18.832048"
       y2="18.628386"
       gradientUnits="userSpaceOnUse"
       gradientTransform="matrix(0.9736927,0,0,0.7957954,1.0315792,4.6566696)" />
  </defs>
  <sodipodi:namedview
     id="base"
     pagecolor="#ffffff"
     bordercolor="#666666"
     borderopacity="1.0"
     inkscape:pageopacity="0.0"
     inkscape:pageshadow="2"
     inkscape:zoom="31.112698"
     inkscape:cx="10.666071"
     inkscape:cy="10.202053"
     inkscape:current-layer="layer1"
     showgrid="true"
     inkscape:document-units="px"
     inkscape:grid-bbox="true"
     width="20px"
     height="20px"
     inkscape:window-width="1280"
     inkscape:window-height="751"
     inkscape:window-x="0"
     inkscape:window-y="24" />
  <metadata
     id="metadata2165">
    <rdf:RDF>
      <cc:Work
         rdf:about="">
        <dc:format>image/svg+xml</dc:format>
        <dc:type
           rdf:resource="http://purl.org/dc/dcmitype/StillImage" />
      </cc:Work>
    </rdf:RDF>
  </metadata>
  <g
     id="layer1"
     inkscape:label="Layer 1"
     inkscape:groupmode="layer">
    <rect
       style="opacity:1;fill:url(#linearGradient3147);fill-opacity:1;fill-rule:nonzero;stroke:#646464;stroke-width:0.42259255;stroke-miterlimit:4;stroke-dasharray:none;stroke-opacity:1"
       id="rect2168"
       width="15.577408"
       height="3.5774074"
       x="3.2112958"
       y="1.2112963" />
    <rect
       style="opacity:1;fill:url(#linearGradient6066);fill-opacity:1;fill-rule:nonzero;stroke:#646464;stroke-width:0.35276866;stroke-miterlimit:4;stroke-dasharray:none;stroke-opacity:1"
       id="rect4118"
       width="10.647231"
       height="3.6472311"
       x="3.176384"
       y="8.1763849" />
    <rect
       style="opacity:1;fill:url(#linearGradient7047);fill-opacity:1;fill-rule:nonzero;stroke:#646464;stroke-width:0.3963587;stroke-miterlimit:4;stroke-dasharray:none;stroke-opacity:1"
       id="rect6068"
       width="13.603642"
       height="3.6036413"
       x="3.198179"
       y="15.198179" />
    <path
       style="opacity:1;fill:none;fill-rule:evenodd;stroke:#ff0000;stroke-width:1.03326035;stroke-linecap:butt;stroke-linejoin:miter;stroke-miterlimit:4;stroke-dasharray:none;stroke-dashoffset:0;stroke-opacity:1"
       d="M 13.207005,4.7853698 C 12.638059,4.7853698 12.069113,4.7853698 11.500167,4.7853698 C 10.838121,4.7853698 10.176074,4.7853698 9.5140291,4.7853698 C 9.0278383,4.7853698 8.5416483,4.7853698 8.0554582,4.7853698 C 7.3934125,4.7853698 6.7313633,4.7853698 6.0693175,4.7853698 C 5.4900272,4.7853698 4.9107369,4.7853698 4.3314459,4.7853698 C 3.7625004,4.7853698 3.1935543,4.7853698 2.6246087,4.7853698 C 2.0556632,4.7853698 1.4867163,4.7853698 0.91777077,4.7853698"
       id="path7049" />
    <path
       style="opacity:1;fill:none;fill-rule:evenodd;stroke:#ff0000;stroke-width:1.03326035;stroke-linecap:butt;stroke-linejoin:miter;stroke-miterlimit:4;stroke-dasharray:none;stroke-dashoffset:0;stroke-opacity:1"
       d="M 13.183544,11.78437 C 12.614598,11.78437 12.045652,11.78437 11.476706,11.78437 C 10.81466,11.78437 10.152613,11.78437 9.4905679,11.78437 C 9.0043771,11.78437 8.5181871,11.78437 8.031997,11.78437 C 7.3699513,11.78437 6.7079021,11.78437 6.0458563,11.78437 C 5.466566,11.78437 4.8872757,11.78437 4.3079847,11.78437 C 3.7390392,11.78437 3.1700931,11.78437 2.6011475,11.78437 C 2.032202,11.78437 1.4632551,11.78437 0.89430957,11.78437"
       id="path2173" />
    <path
       style="fill:none;fill-rule:evenodd;stroke:#000000;stroke-width:0.22970431;stroke-linecap:butt;stroke-linejoin:miter;marker-start:url(#TriangleInM);marker-end:url(#TriangleOutM);stroke-miterlimit:4;stroke-dasharray:none;stroke-opacity:1"
       d="M 1.0928014,5.9269454 C 1.0928014,5.9573257 1.0928014,5.987706 1.0928014,6.0180863 C 1.0928014,6.1699503 1.0928014,6.321814 1.0928014,6.4736778 C 1.0928014,6.6207959 1.0928014,6.7679141 1.0928014,6.9150321 C 1.0928014,6.9548021 1.0928014,6.9945721 1.0928014,7.0343425"
       id="path2177" />
    <path
       style="opacity:1;fill:none;fill-rule:evenodd;stroke:#ff0000;stroke-width:1.03326035;stroke-linecap:butt;stroke-linejoin:miter;stroke-miterlimit:4;stroke-dasharray:none;stroke-dashoffset:0;stroke-opacity:1"
       d="M 13.215685,8.2093698 C 12.646739,8.2093698 12.077793,8.2093698 11.508847,8.2093698 C 10.846801,8.2093698 10.184754,8.2093698 9.5227091,8.2093698 C 9.0365183,8.2093698 8.5503283,8.2093698 8.0641382,8.2093698 C 7.4020925,8.2093698 6.7400433,8.2093698 6.0779975,8.2093698 C 5.4987072,8.2093698 4.9194169,8.2093698 4.3401259,8.2093698 C 3.7711804,8.2093698 3.2022343,8.2093698 2.6332887,8.2093698 C 2.0643432,8.2093698 1.4953963,8.2093698 0.92645079,8.2093698"
       id="path2323" />
    <path
       style="opacity:1;fill:none;fill-rule:evenodd;stroke:#ff0000;stroke-width:1.03326035;stroke-linecap:butt;stroke-linejoin:miter;stroke-miterlimit:4;stroke-dasharray:none;stroke-dashoffset:0;stroke-opacity:1"
       d="M 13.231755,15.21637 C 12.662809,15.21637 12.093863,15.21637 11.524918,15.21637 C 10.862872,15.21637 10.200825,15.21637 9.5387798,15.21637 C 9.052589,15.21637 8.566399,15.21637 8.0802089,15.21637 C 7.4181632,15.21637 6.756114,15.21637 6.0940682,15.21637 C 5.5147779,15.21637 4.9354876,15.21637 4.3561966,15.21637 C 3.7872511,15.21637 3.218305,15.21637 2.6493593,15.21637 C 2.0804138,15.21637 1.5114669,15.21637 0.9425214,15.21637"
       id="path2325" />
    <path
       style="fill:none;fill-rule:evenodd;stroke:#000000;stroke-width:0.22897196;stroke-linecap:butt;stroke-linejoin:miter;marker-start:url(#TriangleInM);marker-end:url(#TriangleOutM);stroke-miterlimit:4;stroke-dasharray:none;stroke-opacity:1"
       d="M 1.092671,9.399393 C 1.092671,9.42978 1.092671,9.460167 1.092671,9.490554 C 1.092671,9.6424516 1.092671,9.7943488 1.092671,9.9462467 C 1.092671,10.093396 1.092671,10.240545 1.092671,10.387696 C 1.092671,10.427475 1.092671,10.467254 1.092671,10.507033"
       id="path3203" />
    <path
       style="fill:none;fill-rule:evenodd;stroke:#000000;stroke-width:0.22970431;stroke-linecap:butt;stroke-linejoin:miter;marker-start:url(#TriangleInM);marker-end:url(#TriangleOutM);stroke-miterlimit:4;stroke-dasharray:none;stroke-opacity:1"
       d="M 1.0928014,12.917945 C 1.0928014,12.948325 1.0928014,12.978705 1.0928014,13.009086 C 1.0928014,13.16095 1.0928014,13.312813 1.0928014,13.464677 C 1.0928014,13.611795 1.0928014,13.758914 1.0928014,13.906032 C 1.0928014,13.945802 1.0928014,13.985572 1.0928014,14.025342"
       id="path3205" />
  </g>
</svg>
