<?xml version="1.0" encoding="UTF-8" standalone="no"?>
<!-- Created with Inkscape (http://www.inkscape.org/) -->
<svg
   xmlns:dc="http://purl.org/dc/elements/1.1/"
   xmlns:cc="http://web.resource.org/cc/"
   xmlns:rdf="http://www.w3.org/1999/02/22-rdf-syntax-ns#"
   xmlns:svg="http://www.w3.org/2000/svg"
   xmlns="http://www.w3.org/2000/svg"
   xmlns:xlink="http://www.w3.org/1999/xlink"
   xmlns:sodipodi="http://inkscape.sourceforge.net/DTD/sodipodi-0.dtd"
   xmlns:inkscape="http://www.inkscape.org/namespaces/inkscape"
   width="20"
   height="20"
   id="svg1306"
   sodipodi:version="0.32"
   inkscape:version="0.43"
   version="1.0"
   sodipodi:docbase="C:\Documents and Settings\Tristelune\Mes documents\Programmation\TexDraw\graphisme"
   sodipodi:docname="new.svg">
  <defs
     id="defs1308">
    <linearGradient
       inkscape:collect="always"
       id="linearGradient8719">
      <stop
         style="stop-color:#000000;stop-opacity:1;"
         offset="0"
         id="stop8721" />
      <stop
         style="stop-color:#000000;stop-opacity:0;"
         offset="1"
         id="stop8723" />
    </linearGradient>
    <linearGradient
       id="linearGradient6092">
      <stop
         style="stop-color:#000000;stop-opacity:1;"
         offset="0"
         id="stop6094" />
      <stop
         style="stop-color:#000000;stop-opacity:0;"
         offset="1"
         id="stop6096" />
    </linearGradient>
    <linearGradient
       id="linearGradient5203">
      <stop
         style="stop-color:#fff24f;stop-opacity:0.74901962;"
         offset="0"
         id="stop5205" />
      <stop
         style="stop-color:#7885cd;stop-opacity:0;"
         offset="1"
         id="stop5207" />
    </linearGradient>
    <linearGradient
       id="linearGradient1083">
      <stop
         style="stop-color:#ffffff;stop-opacity:1.0000000;"
         offset="0.0000000"
         id="stop1084" />
      <stop
         style="stop-color:#cd000d;stop-opacity:0.9375;"
         offset="0.56165564"
         id="stop1085" />
      <stop
         style="stop-color:#ffffff;stop-opacity:0.0000000;"
         offset="1.0000000"
         id="stop1086" />
    </linearGradient>
    <radialGradient
       inkscape:collect="always"
       xlink:href="#linearGradient1083"
       id="radialGradient3431"
       gradientUnits="userSpaceOnUse"
       cx="1168.9283"
       cy="999.98224"
       fx="1168.9283"
       fy="999.98224"
       r="155.47322" />
    <radialGradient
       inkscape:collect="always"
       xlink:href="#linearGradient1083"
       id="radialGradient3433"
       gradientUnits="userSpaceOnUse"
       cx="1168.9283"
       cy="999.98224"
       fx="1168.9283"
       fy="999.98224"
       r="155.47322" />
    <radialGradient
       inkscape:collect="always"
       xlink:href="#linearGradient1083"
       id="radialGradient3441"
       gradientUnits="userSpaceOnUse"
       cx="1168.9283"
       cy="999.98224"
       fx="1168.9283"
       fy="999.98224"
       r="155.47322" />
    <radialGradient
       inkscape:collect="always"
       xlink:href="#linearGradient1083"
       id="radialGradient3443"
       gradientUnits="userSpaceOnUse"
       cx="1168.9283"
       cy="999.98224"
       fx="1168.9283"
       fy="999.98224"
       r="155.47322" />
    <radialGradient
       inkscape:collect="always"
       xlink:href="#linearGradient1083"
       id="radialGradient3451"
       gradientUnits="userSpaceOnUse"
       cx="1168.9283"
       cy="999.98224"
       fx="1168.9283"
       fy="999.98224"
       r="155.47322" />
    <radialGradient
       inkscape:collect="always"
       xlink:href="#linearGradient1083"
       id="radialGradient3453"
       gradientUnits="userSpaceOnUse"
       cx="1168.9283"
       cy="999.98224"
       fx="1168.9283"
       fy="999.98224"
       r="155.47322" />
    <radialGradient
       inkscape:collect="always"
       xlink:href="#linearGradient8719"
       id="radialGradient8725"
       cx="10.145155"
       cy="16.26046"
       fx="10.145155"
       fy="16.26046"
       r="5.8999932"
       gradientTransform="matrix(1,0,0,0.167974,-4.5148e-2,14.25971)"
       gradientUnits="userSpaceOnUse" />
    <radialGradient
       inkscape:collect="always"
       xlink:href="#linearGradient8719"
       id="radialGradient8729"
       gradientUnits="userSpaceOnUse"
       gradientTransform="matrix(1,0,0,0.167974,-0.245162,11.78964)"
       cx="10.145155"
       cy="16.26046"
       fx="10.145155"
       fy="16.26046"
       r="5.8999932" />
    <radialGradient
       inkscape:collect="always"
       xlink:href="#linearGradient8719"
       id="radialGradient8733"
       gradientUnits="userSpaceOnUse"
       gradientTransform="matrix(1,0,0,0.167974,-0.245161,8.731578)"
       cx="10.145155"
       cy="16.26046"
       fx="10.145155"
       fy="16.26046"
       r="5.8999932" />
    <radialGradient
       inkscape:collect="always"
       xlink:href="#linearGradient8719"
       id="radialGradient8737"
       gradientUnits="userSpaceOnUse"
       gradientTransform="matrix(1,0,0,0.167974,-4.5148e-2,5.814091)"
       cx="10.145155"
       cy="16.26046"
       fx="10.145155"
       fy="16.26046"
       r="5.8999932" />
  </defs>
  <sodipodi:namedview
     id="base"
     pagecolor="#ffffff"
     bordercolor="#666666"
     borderopacity="1.0"
     inkscape:pageopacity="0.0"
     inkscape:pageshadow="2"
     inkscape:zoom="15.696216"
     inkscape:cx="19.239337"
     inkscape:cy="8.8206833"
     inkscape:current-layer="layer1"
     showgrid="true"
     inkscape:grid-bbox="true"
     inkscape:document-units="px"
     inkscape:window-width="1024"
     inkscape:window-height="742"
     inkscape:window-x="-4"
     inkscape:window-y="-4" />
  <metadata
     id="metadata1311">
    <rdf:RDF>
      <cc:Work
         rdf:about="">
        <dc:format>image/svg+xml</dc:format>
        <dc:type
           rdf:resource="http://purl.org/dc/dcmitype/StillImage" />
      </cc:Work>
    </rdf:RDF>
  </metadata>
  <g
     id="layer1"
     inkscape:label="Layer 1"
     inkscape:groupmode="layer">
    <rect
       style="opacity:1;fill:#7885cd;fill-opacity:0.54148471;fill-rule:evenodd;stroke:#000000;stroke-width:0.68509758;stroke-linecap:round;stroke-linejoin:round;stroke-miterlimit:4;stroke-dasharray:none;stroke-dashoffset:0;stroke-opacity:1"
       id="rect1314"
       width="15.325997"
       height="18"
       x="2.3388255"
       y="1" />
    <path
       style="fill:none;fill-opacity:1;fill-rule:evenodd;stroke:url(#radialGradient8737);stroke-width:1px;stroke-linecap:butt;stroke-linejoin:miter;stroke-opacity:1"
       d="M 4.7000132,8.9857699 C 5.314534,8.8999469 7.4775856,7.9555786 8.910496,9.4954469 C 9.42906,10.052718 10.776349,8.6035124 11.295164,8.6035124 C 12.845432,8.6035124 14.009327,10.143129 13.843549,8.8583509 C 13.588711,6.8833526 14.990323,9.5591563 15.691129,9.5591563"
       id="path8735"
       sodipodi:nodetypes="csssc" />
    <path
       style="fill:none;fill-opacity:1;fill-rule:evenodd;stroke:url(#radialGradient8733);stroke-width:1px;stroke-linecap:butt;stroke-linejoin:miter;stroke-opacity:1"
       d="M 4.5,11.903257 C 5.1145208,11.817434 6.6080657,12.47827 8.7104832,12.412934 C 9.2290469,12.396819 10.640046,11.775838 11.158861,11.775838 C 12.709129,11.775838 12.348107,11.775838 13.643536,11.775838 C 14.344342,11.775838 14.599181,11.202451 15.299987,11.202451"
       id="path8731"
       sodipodi:nodetypes="csssc" />
    <g
       id="g3427"
       transform="matrix(1.329168,0,0,1.38256,-2.329158,-9.876246)">
      <path
         sodipodi:type="arc"
         style="fill:url(#radialGradient3431);fill-opacity:0.75;fill-rule:evenodd;stroke:none;stroke-width:1pt;stroke-opacity:1"
         id="path1174"
         sodipodi:cx="1168.9283"
         sodipodi:cy="999.98224"
         sodipodi:rx="155.47322"
         sodipodi:ry="155.47322"
         d="M 1324.4016 999.98224 A 155.47322 155.47322 0 1 1  1013.4551,999.98224 A 155.47322 155.47322 0 1 1  1324.4016 999.98224 z"
         transform="matrix(2.931018e-2,0,0,3.534522e-3,-28.70456,9.961991)" />
      <path
         sodipodi:type="arc"
         style="fill:url(#radialGradient3433);fill-opacity:0.75;fill-rule:evenodd;stroke:none;stroke-width:1pt;stroke-opacity:1"
         id="path1175"
         sodipodi:cx="1168.9283"
         sodipodi:cy="999.98224"
         sodipodi:rx="155.47322"
         sodipodi:ry="155.47322"
         d="M 1324.4016 999.98224 A 155.47322 155.47322 0 1 1  1013.4551,999.98224 A 155.47322 155.47322 0 1 1  1324.4016 999.98224 z"
         transform="matrix(1.794672e-18,2.892103e-2,-3.582081e-3,2.164197e-19,9.138935,-20.31017)" />
    </g>
    <g
       id="g3435"
       transform="matrix(1.167769,0,0,1.222398,3.189315,-11.51126)">
      <path
         sodipodi:type="arc"
         style="fill:url(#radialGradient3441);fill-opacity:0.75;fill-rule:evenodd;stroke:none;stroke-width:1pt;stroke-opacity:1"
         id="path3437"
         sodipodi:cx="1168.9283"
         sodipodi:cy="999.98224"
         sodipodi:rx="155.47322"
         sodipodi:ry="155.47322"
         d="M 1324.4016 999.98224 A 155.47322 155.47322 0 1 1  1013.4551,999.98224 A 155.47322 155.47322 0 1 1  1324.4016 999.98224 z"
         transform="matrix(2.931018e-2,0,0,3.534522e-3,-28.70456,9.961991)" />
      <path
         sodipodi:type="arc"
         style="fill:url(#radialGradient3443);fill-opacity:0.75;fill-rule:evenodd;stroke:none;stroke-width:1pt;stroke-opacity:1"
         id="path3439"
         sodipodi:cx="1168.9283"
         sodipodi:cy="999.98224"
         sodipodi:rx="155.47322"
         sodipodi:ry="155.47322"
         d="M 1324.4016 999.98224 A 155.47322 155.47322 0 1 1  1013.4551,999.98224 A 155.47322 155.47322 0 1 1  1324.4016 999.98224 z"
         transform="matrix(1.794672e-18,2.892103e-2,-3.582081e-3,2.164197e-19,9.138935,-20.31017)" />
    </g>
    <g
       id="g3445"
       transform="matrix(0.888774,0,0,0.936403,-0.888767,-8.848594)">
      <path
         sodipodi:type="arc"
         style="fill:url(#radialGradient3451);fill-opacity:0.75;fill-rule:evenodd;stroke:none;stroke-width:1pt;stroke-opacity:1"
         id="path3447"
         sodipodi:cx="1168.9283"
         sodipodi:cy="999.98224"
         sodipodi:rx="155.47322"
         sodipodi:ry="155.47322"
         d="M 1324.4016 999.98224 A 155.47322 155.47322 0 1 1  1013.4551,999.98224 A 155.47322 155.47322 0 1 1  1324.4016 999.98224 z"
         transform="matrix(2.931018e-2,0,0,3.534522e-3,-28.70456,9.961991)" />
      <path
         sodipodi:type="arc"
         style="fill:url(#radialGradient3453);fill-opacity:0.75;fill-rule:evenodd;stroke:none;stroke-width:1pt;stroke-opacity:1"
         id="path3449"
         sodipodi:cx="1168.9283"
         sodipodi:cy="999.98224"
         sodipodi:rx="155.47322"
         sodipodi:ry="155.47322"
         d="M 1324.4016 999.98224 A 155.47322 155.47322 0 1 1  1013.4551,999.98224 A 155.47322 155.47322 0 1 1  1324.4016 999.98224 z"
         transform="matrix(1.794672e-18,2.892103e-2,-3.582081e-3,2.164197e-19,9.138935,-20.31017)" />
    </g>
    <path
       style="fill:none;fill-opacity:1;fill-rule:evenodd;stroke:url(#radialGradient8725);stroke-width:1px;stroke-linecap:butt;stroke-linejoin:miter;stroke-opacity:1"
       d="M 4.7000135,17.43139 C 5.3145343,17.345567 7.954852,17.878984 7.954852,16.730584 C 7.954852,16.21177 8.9924808,16.730584 9.5112952,16.730584 C 10.806724,16.730584 12.102153,16.730584 13.397582,16.730584 C 14.098388,16.730584 14.799194,16.730584 15.5,16.730584"
       id="path4328"
       sodipodi:nodetypes="csssc" />
    <path
       style="fill:none;fill-opacity:1;fill-rule:evenodd;stroke:url(#radialGradient8729);stroke-width:1px;stroke-linecap:butt;stroke-linejoin:miter;stroke-opacity:1"
       d="M 4.5,14.961318 C 5.1145208,14.875495 5.652421,15.66375 5.652421,14.51535 C 5.652421,13.996536 10.257788,14.770189 10.776603,14.770189 C 12.072031,14.770189 11.392462,14.069383 12.687891,14.069383 C 13.388697,14.069383 14.59918,14.260512 15.299986,14.260512"
       id="path8727"
       sodipodi:nodetypes="csssc" />
  </g>
</svg>
