<?xml version="1.0" encoding="UTF-8" standalone="no"?>
<!-- Created with Inkscape (http://www.inkscape.org/) -->
<svg
   xmlns:dc="http://purl.org/dc/elements/1.1/"
   xmlns:cc="http://web.resource.org/cc/"
   xmlns:rdf="http://www.w3.org/1999/02/22-rdf-syntax-ns#"
   xmlns:svg="http://www.w3.org/2000/svg"
   xmlns="http://www.w3.org/2000/svg"
   xmlns:xlink="http://www.w3.org/1999/xlink"
   xmlns:sodipodi="http://sodipodi.sourceforge.net/DTD/sodipodi-0.dtd"
   xmlns:inkscape="http://www.inkscape.org/namespaces/inkscape"
   width="20"
   height="20"
   id="svg2160"
   sodipodi:version="0.32"
   inkscape:version="0.45"
   version="1.0"
   sodipodi:docbase="/home/arno/latexdraw/TexDraw/graphisme"
   sodipodi:docname="distVertEqual.svg"
   inkscape:output_extension="org.inkscape.output.svg.inkscape"
   inkscape:export-filename="/home/arno/latexdraw/TexDraw/res/distrib/distVertEqual.png"
   inkscape:export-xdpi="98"
   inkscape:export-ydpi="98"
   sodipodi:modified="TRUE">
  <defs
     id="defs2162">
    <marker
       inkscape:stockid="TriangleInM"
       orient="auto"
       refY="0.0"
       refX="0.0"
       id="TriangleInM"
       style="overflow:visible">
      <path
         id="path3245"
         d="M 5.77,0.0 L -2.88,5.0 L -2.88,-5.0 L 5.77,0.0 z "
         style="fill-rule:evenodd;stroke:#000000;stroke-width:1.0pt;marker-start:none"
         transform="scale(-0.4)" />
    </marker>
    <marker
       inkscape:stockid="TriangleOutM"
       orient="auto"
       refY="0.0"
       refX="0.0"
       id="TriangleOutM"
       style="overflow:visible">
      <path
         id="path3254"
         d="M 5.77,0.0 L -2.88,5.0 L -2.88,-5.0 L 5.77,0.0 z "
         style="fill-rule:evenodd;stroke:#000000;stroke-width:1.0pt;marker-start:none"
         transform="scale(0.4)" />
    </marker>
    <marker
       inkscape:stockid="TriangleInS"
       orient="auto"
       refY="0.0"
       refX="0.0"
       id="TriangleInS"
       style="overflow:visible">
      <path
         id="path3248"
         d="M 5.77,0.0 L -2.88,5.0 L -2.88,-5.0 L 5.77,0.0 z "
         style="fill-rule:evenodd;stroke:#000000;stroke-width:1.0pt;marker-start:none"
         transform="scale(-0.2)" />
    </marker>
    <marker
       inkscape:stockid="Arrow1Sstart"
       orient="auto"
       refY="0.0"
       refX="0.0"
       id="Arrow1Sstart"
       style="overflow:visible">
      <path
         id="path3165"
         d="M 0.0,0.0 L 5.0,-5.0 L -12.5,0.0 L 5.0,5.0 L 0.0,0.0 z "
         style="fill-rule:evenodd;stroke:#000000;stroke-width:1.0pt;marker-start:none"
         transform="scale(0.2) translate(6,0)" />
    </marker>
    <marker
       inkscape:stockid="Arrow1Send"
       orient="auto"
       refY="0.0"
       refX="0.0"
       id="Arrow1Send"
       style="overflow:visible;">
      <path
         id="path3168"
         d="M 0.0,0.0 L 5.0,-5.0 L -12.5,0.0 L 5.0,5.0 L 0.0,0.0 z "
         style="fill-rule:evenodd;stroke:#000000;stroke-width:1.0pt;marker-start:none;"
         transform="scale(0.2) rotate(180) translate(6,0)" />
    </marker>
    <marker
       inkscape:stockid="Arrow2Mend"
       orient="auto"
       refY="0.0"
       refX="0.0"
       id="Arrow2Mend"
       style="overflow:visible;">
      <path
         id="path3180"
         style="font-size:12.0;fill-rule:evenodd;stroke-width:0.62500000;stroke-linejoin:round;"
         d="M 8.7185878,4.0337352 L -2.2072895,0.016013256 L 8.7185884,-4.0017078 C 6.9730900,-1.6296469 6.9831476,1.6157441 8.7185878,4.0337352 z "
         transform="scale(0.6) rotate(180) translate(0,0)" />
    </marker>
    <marker
       inkscape:stockid="Arrow2Sstart"
       orient="auto"
       refY="0.0"
       refX="0.0"
       id="Arrow2Sstart"
       style="overflow:visible">
      <path
         id="path3183"
         style="font-size:12.0;fill-rule:evenodd;stroke-width:0.62500000;stroke-linejoin:round"
         d="M 8.7185878,4.0337352 L -2.2072895,0.016013256 L 8.7185884,-4.0017078 C 6.9730900,-1.6296469 6.9831476,1.6157441 8.7185878,4.0337352 z "
         transform="scale(0.3) translate(-2.3,0)" />
    </marker>
    <linearGradient
       inkscape:collect="always"
       id="linearGradient7041">
      <stop
         style="stop-color:#000000;stop-opacity:1;"
         offset="0"
         id="stop7043" />
      <stop
         style="stop-color:#000000;stop-opacity:0;"
         offset="1"
         id="stop7045" />
    </linearGradient>
    <linearGradient
       id="linearGradient6060">
      <stop
         style="stop-color:#e30000;stop-opacity:1;"
         offset="0"
         id="stop6062" />
      <stop
         style="stop-color:#000000;stop-opacity:0;"
         offset="1"
         id="stop6064" />
    </linearGradient>
    <linearGradient
       id="linearGradient3141">
      <stop
         style="stop-color:#2ba6ff;stop-opacity:1;"
         offset="0"
         id="stop3143" />
      <stop
         style="stop-color:#2ba6ff;stop-opacity:0;"
         offset="1"
         id="stop3145" />
    </linearGradient>
    <linearGradient
       inkscape:collect="always"
       xlink:href="#linearGradient3141"
       id="linearGradient3147"
       x1="9.227273"
       y1="1.2272727"
       x2="18.90909"
       y2="7.9545455"
       gradientUnits="userSpaceOnUse"
       gradientTransform="matrix(1.0409864,0,0,0.9024551,0.5901355,-1.0610481)" />
    <linearGradient
       inkscape:collect="always"
       xlink:href="#linearGradient6060"
       id="linearGradient6066"
       x1="7.3033009"
       y1="9.2715693"
       x2="15.542778"
       y2="14.960565"
       gradientUnits="userSpaceOnUse"
       gradientTransform="matrix(0.9188009,0,0,0.798639,1.1495937,0.8241865)" />
    <linearGradient
       inkscape:collect="always"
       xlink:href="#linearGradient7041"
       id="linearGradient7047"
       x1="7.1425943"
       y1="13.871486"
       x2="18.832048"
       y2="18.628386"
       gradientUnits="userSpaceOnUse"
       gradientTransform="matrix(0.9736927,0,0,0.7957954,1.0315792,4.6566696)" />
    <linearGradient
       inkscape:collect="always"
       xlink:href="#linearGradient7041"
       id="linearGradient2205"
       gradientUnits="userSpaceOnUse"
       gradientTransform="matrix(0.9736927,0,0,0.7957954,1.0367651,-15.370286)"
       x1="7.1425943"
       y1="13.871486"
       x2="18.832048"
       y2="18.628386" />
    <linearGradient
       inkscape:collect="always"
       xlink:href="#linearGradient6060"
       id="linearGradient2208"
       gradientUnits="userSpaceOnUse"
       gradientTransform="matrix(0.9188009,0,0,0.798639,1.1547796,-19.202769)"
       x1="7.3033009"
       y1="9.2715693"
       x2="15.542778"
       y2="14.960565" />
    <linearGradient
       inkscape:collect="always"
       xlink:href="#linearGradient3141"
       id="linearGradient2211"
       gradientUnits="userSpaceOnUse"
       gradientTransform="matrix(1.0409864,0,0,0.9024551,0.5953214,-21.088004)"
       x1="9.227273"
       y1="1.2272727"
       x2="18.90909"
       y2="7.9545455" />
  </defs>
  <sodipodi:namedview
     id="base"
     pagecolor="#ffffff"
     bordercolor="#666666"
     borderopacity="1.0"
     inkscape:pageopacity="0.0"
     inkscape:pageshadow="2"
     inkscape:zoom="62.225396"
     inkscape:cx="13.254466"
     inkscape:cy="16.255636"
     inkscape:current-layer="layer1"
     showgrid="true"
     inkscape:document-units="px"
     inkscape:grid-bbox="true"
     width="20px"
     height="20px"
     inkscape:window-width="1280"
     inkscape:window-height="751"
     inkscape:window-x="0"
     inkscape:window-y="24" />
  <metadata
     id="metadata2165">
    <rdf:RDF>
      <cc:Work
         rdf:about="">
        <dc:format>image/svg+xml</dc:format>
        <dc:type
           rdf:resource="http://purl.org/dc/dcmitype/StillImage" />
      </cc:Work>
    </rdf:RDF>
  </metadata>
  <g
     id="layer1"
     inkscape:label="Layer 1"
     inkscape:groupmode="layer">
    <rect
       style="fill:url(#linearGradient2211);fill-opacity:1;fill-rule:nonzero;stroke:#646464;stroke-width:0.42259255;stroke-miterlimit:4;stroke-dasharray:none;stroke-opacity:1"
       id="rect2168"
       width="15.577408"
       height="3.5774074"
       x="3.2164817"
       y="-18.81566"
       transform="matrix(0,1,-1,0,0,0)" />
    <rect
       style="fill:url(#linearGradient2208);fill-opacity:1;fill-rule:nonzero;stroke:#646464;stroke-width:0.35276866;stroke-miterlimit:4;stroke-dasharray:none;stroke-opacity:1"
       id="rect4118"
       width="10.647231"
       height="3.6472311"
       x="3.1815698"
       y="-11.850571"
       transform="matrix(0,1,-1,0,0,0)" />
    <rect
       style="fill:url(#linearGradient2205);fill-opacity:1;fill-rule:nonzero;stroke:#646464;stroke-width:0.3963587;stroke-miterlimit:4;stroke-dasharray:none;stroke-opacity:1"
       id="rect6068"
       width="13.603642"
       height="3.6036413"
       x="3.2033648"
       y="-4.8287768"
       transform="matrix(0,1,-1,0,0,0)" />
    <path
       style="fill:none;fill-rule:evenodd;stroke:#ff0000;stroke-width:1.367;stroke-linecap:butt;stroke-linejoin:miter;stroke-miterlimit:4;stroke-dasharray:none;stroke-dashoffset:0;stroke-opacity:1"
       d="M 15.263567,13.212191 C 15.263567,12.643245 15.263567,12.074299 15.263567,11.505353 C 15.263567,10.843307 15.263567,10.18126 15.263567,9.519215 C 15.263567,9.0330242 15.263567,8.5468342 15.263567,8.0606441 C 15.263567,7.3985984 15.263567,6.7365492 15.263567,6.0745034 C 15.263567,5.4952131 15.263567,4.9159228 15.263567,4.3366318 C 15.263567,3.7676863 15.263567,3.1987402 15.263567,2.6297946 C 15.263567,2.0608491 15.263567,1.4919022 15.263567,0.92295666"
       id="path7049" />
    <path
       style="fill:none;fill-rule:evenodd;stroke:#ff0000;stroke-width:1.367;stroke-linecap:butt;stroke-linejoin:miter;stroke-miterlimit:4;stroke-dasharray:none;stroke-dashoffset:0;stroke-opacity:1"
       d="M 8.264268,13.18873 C 8.264268,12.619784 8.264268,12.050838 8.264268,11.481892 C 8.264268,10.819846 8.264268,10.157799 8.264268,9.4957538 C 8.264268,9.009563 8.264268,8.523373 8.264268,8.0371829 C 8.264268,7.3751372 8.264268,6.713088 8.264268,6.0510422 C 8.264268,5.4717519 8.264268,4.8924616 8.264268,4.3131706 C 8.264268,3.7442251 8.264268,3.175279 8.264268,2.6063334 C 8.264268,2.0373879 8.264268,1.468441 8.264268,0.89949546"
       id="path2173" />
    <path
       style="fill:none;fill-rule:evenodd;stroke:#000000;stroke-width:0.1727697;stroke-linecap:butt;stroke-linejoin:miter;marker-start:url(#TriangleInM);marker-end:url(#TriangleOutM);stroke-miterlimit:4;stroke-dasharray:none;stroke-opacity:1"
       d="M 14.150777,1.2908346 C 14.120338,1.2908346 14.0899,1.2908346 14.059461,1.2908346 C 13.907305,1.2908346 13.75515,1.2908346 13.602994,1.2908346 C 13.455593,1.2908346 13.308193,1.2908346 13.160792,1.2908346 C 13.120945,1.2908346 13.081099,1.2908346 13.041252,1.2908346"
       id="path2177" />
    <path
       style="fill:none;fill-rule:evenodd;stroke:#ff0000;stroke-width:1.367;stroke-linecap:butt;stroke-linejoin:miter;stroke-miterlimit:4;stroke-dasharray:none;stroke-dashoffset:0;stroke-opacity:1"
       d="M 11.838853,13.220871 C 11.838853,12.651925 11.838853,12.082979 11.838853,11.514033 C 11.838853,10.851987 11.838853,10.18994 11.838853,9.527895 C 11.838853,9.0417042 11.838853,8.5555142 11.838853,8.0693241 C 11.838853,7.4072784 11.838853,6.7452292 11.838853,6.0831834 C 11.838853,5.5038931 11.838853,4.9246028 11.838853,4.3453118 C 11.838853,3.7763663 11.838853,3.2074202 11.838853,2.6384746 C 11.838853,2.0695291 11.838853,1.5005822 11.838853,0.93163668"
       id="path2323" />
    <path
       style="fill:none;fill-rule:evenodd;stroke:#ff0000;stroke-width:1.367;stroke-linecap:butt;stroke-linejoin:miter;stroke-miterlimit:4;stroke-dasharray:none;stroke-dashoffset:0;stroke-opacity:1"
       d="M 4.832068,13.236941 C 4.832068,12.667995 4.832068,12.099049 4.832068,11.530104 C 4.832068,10.868058 4.832068,10.206011 4.832068,9.5439657 C 4.832068,9.0577749 4.832068,8.5715849 4.832068,8.0853948 C 4.832068,7.4233491 4.832068,6.7612999 4.832068,6.0992541 C 4.832068,5.5199638 4.832068,4.9406735 4.832068,4.3613825 C 4.832068,3.792437 4.832068,3.2234909 4.832068,2.6545452 C 4.832068,2.0855997 4.832068,1.5166528 4.832068,0.94770729"
       id="path2325" />
    <path
       style="fill:none;fill-rule:evenodd;stroke:#000000;stroke-width:0.17989272;stroke-linecap:butt;stroke-linejoin:miter;marker-start:url(#TriangleInM);marker-end:url(#TriangleOutM);stroke-miterlimit:4;stroke-dasharray:none;stroke-opacity:1"
       d="M 10.635177,1.2908346 C 10.603483,1.2908346 10.57179,1.2908346 10.540096,1.2908346 C 10.381667,1.2908346 10.223239,1.2908346 10.064809,1.2908346 C 9.9113321,1.2908346 9.7578541,1.2908346 9.6043761,1.2908346 C 9.5628865,1.2908346 9.5213977,1.2908346 9.4799081,1.2908346"
       id="path2327" />
    <path
       style="fill:none;fill-rule:evenodd;stroke:#000000;stroke-width:0.16564666;stroke-linecap:butt;stroke-linejoin:miter;marker-start:url(#TriangleInM);marker-end:url(#TriangleOutM);stroke-miterlimit:4;stroke-dasharray:none;stroke-opacity:1"
       d="M 7.0513729,1.2908346 C 7.0221885,1.2908346 6.9930049,1.2908346 6.9638212,1.2908346 C 6.8179387,1.2908346 6.6720563,1.2908346 6.5261739,1.2908346 C 6.3848508,1.2908346 6.243527,1.2908346 6.1022033,1.2908346 C 6.0639993,1.2908346 6.0257961,1.2908346 5.9875921,1.2908346"
       id="path2329" />
  </g>
</svg>
