<?xml version="1.0" encoding="UTF-8" standalone="no"?>
<!-- Created with Inkscape (http://www.inkscape.org/) -->
<svg
   xmlns:dc="http://purl.org/dc/elements/1.1/"
   xmlns:cc="http://web.resource.org/cc/"
   xmlns:rdf="http://www.w3.org/1999/02/22-rdf-syntax-ns#"
   xmlns:svg="http://www.w3.org/2000/svg"
   xmlns="http://www.w3.org/2000/svg"
   xmlns:xlink="http://www.w3.org/1999/xlink"
   xmlns:sodipodi="http://sodipodi.sourceforge.net/DTD/sodipodi-0.dtd"
   xmlns:inkscape="http://www.inkscape.org/namespaces/inkscape"
   width="20"
   height="20"
   id="svg2160"
   sodipodi:version="0.32"
   inkscape:version="0.45"
   version="1.0"
   sodipodi:docbase="/home/arno/latexdraw/TexDraw/graphisme"
   sodipodi:docname="distHorizTop.svg"
   inkscape:output_extension="org.inkscape.output.svg.inkscape"
   inkscape:export-filename="/home/arno/latexdraw/TexDraw/graphisme/distHorizTop.png"
   inkscape:export-xdpi="97"
   inkscape:export-ydpi="97"
   sodipodi:modified="TRUE">
  <defs
     id="defs2162">
    <marker
       inkscape:stockid="TriangleInM"
       orient="auto"
       refY="0.0"
       refX="0.0"
       id="TriangleInM"
       style="overflow:visible">
      <path
         id="path3245"
         d="M 5.77,0.0 L -2.88,5.0 L -2.88,-5.0 L 5.77,0.0 z "
         style="fill-rule:evenodd;stroke:#000000;stroke-width:1.0pt;marker-start:none"
         transform="scale(-0.4)" />
    </marker>
    <marker
       inkscape:stockid="TriangleOutM"
       orient="auto"
       refY="0.0"
       refX="0.0"
       id="TriangleOutM"
       style="overflow:visible">
      <path
         id="path3254"
         d="M 5.77,0.0 L -2.88,5.0 L -2.88,-5.0 L 5.77,0.0 z "
         style="fill-rule:evenodd;stroke:#000000;stroke-width:1.0pt;marker-start:none"
         transform="scale(0.4)" />
    </marker>
    <marker
       inkscape:stockid="TriangleInS"
       orient="auto"
       refY="0.0"
       refX="0.0"
       id="TriangleInS"
       style="overflow:visible">
      <path
         id="path3248"
         d="M 5.77,0.0 L -2.88,5.0 L -2.88,-5.0 L 5.77,0.0 z "
         style="fill-rule:evenodd;stroke:#000000;stroke-width:1.0pt;marker-start:none"
         transform="scale(-0.2)" />
    </marker>
    <marker
       inkscape:stockid="Arrow1Sstart"
       orient="auto"
       refY="0.0"
       refX="0.0"
       id="Arrow1Sstart"
       style="overflow:visible">
      <path
         id="path3165"
         d="M 0.0,0.0 L 5.0,-5.0 L -12.5,0.0 L 5.0,5.0 L 0.0,0.0 z "
         style="fill-rule:evenodd;stroke:#000000;stroke-width:1.0pt;marker-start:none"
         transform="scale(0.2) translate(6,0)" />
    </marker>
    <marker
       inkscape:stockid="Arrow1Send"
       orient="auto"
       refY="0.0"
       refX="0.0"
       id="Arrow1Send"
       style="overflow:visible;">
      <path
         id="path3168"
         d="M 0.0,0.0 L 5.0,-5.0 L -12.5,0.0 L 5.0,5.0 L 0.0,0.0 z "
         style="fill-rule:evenodd;stroke:#000000;stroke-width:1.0pt;marker-start:none;"
         transform="scale(0.2) rotate(180) translate(6,0)" />
    </marker>
    <marker
       inkscape:stockid="Arrow2Mend"
       orient="auto"
       refY="0.0"
       refX="0.0"
       id="Arrow2Mend"
       style="overflow:visible;">
      <path
         id="path3180"
         style="font-size:12.0;fill-rule:evenodd;stroke-width:0.62500000;stroke-linejoin:round;"
         d="M 8.7185878,4.0337352 L -2.2072895,0.016013256 L 8.7185884,-4.0017078 C 6.9730900,-1.6296469 6.9831476,1.6157441 8.7185878,4.0337352 z "
         transform="scale(0.6) rotate(180) translate(0,0)" />
    </marker>
    <marker
       inkscape:stockid="Arrow2Sstart"
       orient="auto"
       refY="0.0"
       refX="0.0"
       id="Arrow2Sstart"
       style="overflow:visible">
      <path
         id="path3183"
         style="font-size:12.0;fill-rule:evenodd;stroke-width:0.62500000;stroke-linejoin:round"
         d="M 8.7185878,4.0337352 L -2.2072895,0.016013256 L 8.7185884,-4.0017078 C 6.9730900,-1.6296469 6.9831476,1.6157441 8.7185878,4.0337352 z "
         transform="scale(0.3) translate(-2.3,0)" />
    </marker>
    <linearGradient
       inkscape:collect="always"
       id="linearGradient7041">
      <stop
         style="stop-color:#000000;stop-opacity:1;"
         offset="0"
         id="stop7043" />
      <stop
         style="stop-color:#000000;stop-opacity:0;"
         offset="1"
         id="stop7045" />
    </linearGradient>
    <linearGradient
       id="linearGradient6060">
      <stop
         style="stop-color:#e30000;stop-opacity:1;"
         offset="0"
         id="stop6062" />
      <stop
         style="stop-color:#000000;stop-opacity:0;"
         offset="1"
         id="stop6064" />
    </linearGradient>
    <linearGradient
       id="linearGradient3141">
      <stop
         style="stop-color:#2ba6ff;stop-opacity:1;"
         offset="0"
         id="stop3143" />
      <stop
         style="stop-color:#2ba6ff;stop-opacity:0;"
         offset="1"
         id="stop3145" />
    </linearGradient>
    <linearGradient
       inkscape:collect="always"
       xlink:href="#linearGradient3141"
       id="linearGradient3147"
       x1="9.227273"
       y1="1.2272727"
       x2="18.90909"
       y2="7.9545455"
       gradientUnits="userSpaceOnUse"
       gradientTransform="matrix(1.0409864,0,0,0.9024551,0.5901355,-1.0610481)" />
    <linearGradient
       inkscape:collect="always"
       xlink:href="#linearGradient6060"
       id="linearGradient6066"
       x1="7.3033009"
       y1="9.2715693"
       x2="15.542778"
       y2="14.960565"
       gradientUnits="userSpaceOnUse"
       gradientTransform="matrix(0.9188009,0,0,0.798639,1.1495937,0.8241865)" />
    <linearGradient
       inkscape:collect="always"
       xlink:href="#linearGradient7041"
       id="linearGradient7047"
       x1="7.1425943"
       y1="13.871486"
       x2="18.832048"
       y2="18.628386"
       gradientUnits="userSpaceOnUse"
       gradientTransform="matrix(0.9736927,0,0,0.7957954,1.0315792,4.6566696)" />
  </defs>
  <sodipodi:namedview
     id="base"
     pagecolor="#ffffff"
     bordercolor="#666666"
     borderopacity="1.0"
     inkscape:pageopacity="0.0"
     inkscape:pageshadow="2"
     inkscape:zoom="31.112698"
     inkscape:cx="11.760369"
     inkscape:cy="10.944401"
     inkscape:current-layer="layer1"
     showgrid="true"
     inkscape:document-units="px"
     inkscape:grid-bbox="true"
     width="20px"
     height="20px"
     inkscape:window-width="1280"
     inkscape:window-height="751"
     inkscape:window-x="0"
     inkscape:window-y="24" />
  <metadata
     id="metadata2165">
    <rdf:RDF>
      <cc:Work
         rdf:about="">
        <dc:format>image/svg+xml</dc:format>
        <dc:type
           rdf:resource="http://purl.org/dc/dcmitype/StillImage" />
      </cc:Work>
    </rdf:RDF>
  </metadata>
  <g
     id="layer1"
     inkscape:label="Layer 1"
     inkscape:groupmode="layer">
    <rect
       style="opacity:1;fill:url(#linearGradient3147);fill-opacity:1;fill-rule:nonzero;stroke:#646464;stroke-width:0.42259255;stroke-miterlimit:4;stroke-dasharray:none;stroke-opacity:1"
       id="rect2168"
       width="15.577408"
       height="3.5774074"
       x="3.2112958"
       y="1.2112963" />
    <rect
       style="opacity:1;fill:url(#linearGradient6066);fill-opacity:1;fill-rule:nonzero;stroke:#646464;stroke-width:0.35276866;stroke-miterlimit:4;stroke-dasharray:none;stroke-opacity:1"
       id="rect4118"
       width="10.647231"
       height="3.6472311"
       x="3.176384"
       y="8.1763849" />
    <rect
       style="opacity:1;fill:url(#linearGradient7047);fill-opacity:1;fill-rule:nonzero;stroke:#646464;stroke-width:0.3963587;stroke-miterlimit:4;stroke-dasharray:none;stroke-opacity:1"
       id="rect6068"
       width="13.603642"
       height="3.6036413"
       x="3.198179"
       y="15.198179" />
    <path
       style="opacity:1;fill:none;fill-rule:evenodd;stroke:#ff0000;stroke-width:1.36699998;stroke-linecap:butt;stroke-linejoin:miter;stroke-miterlimit:4;stroke-dasharray:none;stroke-dashoffset:0;stroke-opacity:1"
       d="M 13.239146,1.1958003 C 12.6702,1.1958003 12.101254,1.1958003 11.532308,1.1958003 C 10.870262,1.1958003 10.208215,1.1958003 9.5461703,1.1958003 C 9.0599795,1.1958003 8.5737895,1.1958003 8.0875994,1.1958003 C 7.4255537,1.1958003 6.7635045,1.1958003 6.1014587,1.1958003 C 5.5221684,1.1958003 4.9428781,1.1958003 4.3635871,1.1958003 C 3.7946416,1.1958003 3.2256955,1.1958003 2.6567499,1.1958003 C 2.0878044,1.1958003 1.5188575,1.1958003 0.94991199,1.1958003"
       id="path7049" />
    <path
       style="opacity:1;fill:none;fill-rule:evenodd;stroke:#ff0000;stroke-width:1.36699998;stroke-linecap:butt;stroke-linejoin:miter;stroke-miterlimit:4;stroke-dasharray:none;stroke-dashoffset:0;stroke-opacity:1"
       d="M 13.215685,8.1951003 C 12.646739,8.1951003 12.077793,8.1951003 11.508847,8.1951003 C 10.846801,8.1951003 10.184754,8.1951003 9.5227091,8.1951003 C 9.0365183,8.1951003 8.5503283,8.1951003 8.0641382,8.1951003 C 7.4020925,8.1951003 6.7400433,8.1951003 6.0779975,8.1951003 C 5.4987072,8.1951003 4.9194169,8.1951003 4.3401259,8.1951003 C 3.7711804,8.1951003 3.2022343,8.1951003 2.6332887,8.1951003 C 2.0643432,8.1951003 1.4953963,8.1951003 0.92645079,8.1951003"
       id="path2173" />
    <path
       style="opacity:1;fill:none;fill-rule:evenodd;stroke:#ff0000;stroke-width:1.36699998;stroke-linecap:butt;stroke-linejoin:miter;stroke-miterlimit:4;stroke-dasharray:none;stroke-dashoffset:0;stroke-opacity:1"
       d="M 13.240233,15.2025 C 12.671287,15.2025 12.102341,15.2025 11.533395,15.2025 C 10.871349,15.2025 10.209302,15.2025 9.5472574,15.2025 C 9.0610666,15.2025 8.5748766,15.2025 8.0886865,15.2025 C 7.4266408,15.2025 6.7645916,15.2025 6.1025458,15.2025 C 5.5232555,15.2025 4.9439652,15.2025 4.3646742,15.2025 C 3.7957287,15.2025 3.2267826,15.2025 2.657837,15.2025 C 2.0888915,15.2025 1.5199446,15.2025 0.95099901,15.2025"
       id="path2175" />
    <path
       style="fill:none;fill-rule:evenodd;stroke:#000000;stroke-width:0.48607352;stroke-linecap:butt;stroke-linejoin:miter;marker-start:url(#TriangleInM);marker-end:url(#TriangleOutM);stroke-miterlimit:4;stroke-dasharray:none;stroke-opacity:1"
       d="M 1.3211817,3.3252405 C 1.3211817,3.402368 1.3211817,3.4794954 1.3211817,3.5566227 C 1.3211817,3.9421641 1.3211817,4.3277056 1.3211817,4.7132471 C 1.3211817,5.0867405 1.3211817,5.4602337 1.3211817,5.8337268 C 1.3211817,5.9346926 1.3211817,6.0356581 1.3211817,6.1366239"
       id="path2177" />
    <path
       style="fill:none;fill-rule:evenodd;stroke:#000000;stroke-width:0.48180979;stroke-linecap:butt;stroke-linejoin:miter;marker-start:url(#TriangleInM);marker-end:url(#TriangleOutM);stroke-miterlimit:4;stroke-dasharray:none;stroke-opacity:1"
       d="M 1.3177531,10.40216 C 1.3177531,10.47775 1.3177531,10.553341 1.3177531,10.628934 C 1.3177531,11.006792 1.3177531,11.384655 1.3177531,11.762512 C 1.3177531,12.128567 1.3177531,12.494619 1.3177531,12.86067 C 1.3177531,12.959626 1.3177531,13.05858 1.3177531,13.157531"
       id="path5300" />
  </g>
</svg>
