<?xml version="1.0" encoding="UTF-8" standalone="no"?>
<!-- Created with Inkscape (http://www.inkscape.org/) -->
<svg
   xmlns:dc="http://purl.org/dc/elements/1.1/"
   xmlns:cc="http://web.resource.org/cc/"
   xmlns:rdf="http://www.w3.org/1999/02/22-rdf-syntax-ns#"
   xmlns:svg="http://www.w3.org/2000/svg"
   xmlns="http://www.w3.org/2000/svg"
   xmlns:sodipodi="http://sodipodi.sourceforge.net/DTD/sodipodi-0.dtd"
   xmlns:inkscape="http://www.inkscape.org/namespaces/inkscape"
   width="50"
   height="50"
   id="svg25410"
   sodipodi:version="0.32"
   inkscape:version="0.44.1"
   version="1.0"
   sodipodi:docbase="C:\Documents and Settings\Tristelune\Mes documents"
   sodipodi:docname="idea.svg">
  <defs
     id="defs25412" />
  <sodipodi:namedview
     id="base"
     pagecolor="#ffffff"
     bordercolor="#666666"
     borderopacity="1.0"
     inkscape:pageopacity="0.0"
     inkscape:pageshadow="2"
     inkscape:zoom="5.5"
     inkscape:cx="32"
     inkscape:cy="15.929486"
     inkscape:current-layer="layer1"
     showgrid="true"
     inkscape:document-units="px"
     inkscape:grid-bbox="true"
     width="50px"
     height="50px"
     inkscape:window-width="1024"
     inkscape:window-height="712"
     inkscape:window-x="-4"
     inkscape:window-y="-4" />
  <metadata
     id="metadata25415">
    <rdf:RDF>
      <cc:Work
         rdf:about="">
        <dc:format>image/svg+xml</dc:format>
        <dc:type
           rdf:resource="http://purl.org/dc/dcmitype/StillImage" />
      </cc:Work>
    </rdf:RDF>
  </metadata>
  <g
     id="layer1"
     inkscape:label="Layer 1"
     inkscape:groupmode="layer">
    <path
       style="fill:black;fill-opacity:1;fill-rule:evenodd;stroke:black;stroke-width:0;stroke-linejoin:round;stroke-miterlimit:0;stroke-dashoffset:0;stroke-opacity:1"
       d="M 34.037616,10.705191 C 34.037616,14.954631 32.964894,21.37778 31.507614,21.37778 C 30.050333,21.37778 28.867612,15.217072 28.867612,10.96763 C 28.867612,6.7181904 30.050333,5.9812564 31.507614,5.9812564 C 32.964894,5.9812564 34.037616,6.4557494 34.037616,10.705191 z "
       id="path25418"
       sodipodi:nodetypes="czzzz" />
    <path
       sodipodi:type="arc"
       style="opacity:1;fill:black;fill-opacity:1;fill-rule:evenodd;stroke:black;stroke-width:0;stroke-linejoin:round;stroke-miterlimit:0;stroke-dasharray:none;stroke-dashoffset:0;stroke-opacity:1"
       id="path26306"
       sodipodi:cx="26.818182"
       sodipodi:cy="47.090908"
       sodipodi:rx="4.090909"
       sodipodi:ry="4"
       d="M 30.909091 47.090908 A 4.090909 4 0 1 1  22.727273,47.090908 A 4.090909 4 0 1 1  30.909091 47.090908 z"
       transform="matrix(0.605001,0,0,0.481142,15.22761,1.388544)" />
    <path
       sodipodi:type="arc"
       style="opacity:1;fill:none;fill-opacity:1;fill-rule:evenodd;stroke:black;stroke-width:3;stroke-linejoin:round;stroke-miterlimit:0;stroke-dasharray:18, 6;stroke-dashoffset:0;stroke-opacity:1"
       id="path26308"
       sodipodi:cx="34.81818"
       sodipodi:cy="28.09091"
       sodipodi:rx="25"
       sodipodi:ry="23.181818"
       d="M 59.81818 28.09091 A 25 23.181818 0 1 1  9.8181801,28.09091 A 25 23.181818 0 1 1  59.81818 28.09091 z"
       transform="matrix(0.598066,-7.111784e-2,8.020524e-2,0.55495,8.440631,3.009586)" />
    <path
       sodipodi:type="arc"
       style="opacity:1;fill:black;fill-opacity:1;fill-rule:evenodd;stroke:black;stroke-width:3;stroke-linejoin:round;stroke-miterlimit:0;stroke-dasharray:none;stroke-dashoffset:0;stroke-opacity:1"
       id="path27195"
       sodipodi:cx="8.181818"
       sodipodi:cy="53.636364"
       sodipodi:rx="7.6363635"
       sodipodi:ry="5.090909"
       d="M 15.818182 53.636364 A 7.6363635 5.090909 0 1 1  0.5454545,53.636364 A 7.6363635 5.090909 0 1 1  15.818182 53.636364 z"
       transform="matrix(0.403247,-0.472508,0.378077,0.322658,-8.957495,18.12477)" />
    <path
       sodipodi:type="arc"
       style="opacity:1;fill:black;fill-opacity:1;fill-rule:evenodd;stroke:black;stroke-width:3;stroke-linejoin:round;stroke-miterlimit:0;stroke-dasharray:none;stroke-dashoffset:0;stroke-opacity:1"
       id="path28082"
       sodipodi:cx="8.181818"
       sodipodi:cy="53.636364"
       sodipodi:rx="7.6363635"
       sodipodi:ry="5.090909"
       d="M 15.818182 53.636364 A 7.6363635 5.090909 0 1 1  0.5454545,53.636364 A 7.6363635 5.090909 0 1 1  15.818182 53.636364 z"
       transform="matrix(0.213706,0,0,0.332249,3.128953,28.90639)" />
    <path
       sodipodi:type="arc"
       style="opacity:1;fill:black;fill-opacity:1;fill-rule:evenodd;stroke:black;stroke-width:3;stroke-linejoin:round;stroke-miterlimit:0;stroke-dasharray:none;stroke-dashoffset:0;stroke-opacity:1"
       id="path28086"
       sodipodi:cx="8.181818"
       sodipodi:cy="53.636364"
       sodipodi:rx="7.6363635"
       sodipodi:ry="5.090909"
       d="M 15.818182 53.636364 A 7.6363635 5.090909 0 1 1  0.5454545,53.636364 A 7.6363635 5.090909 0 1 1  15.818182 53.636364 z"
       transform="matrix(0.235402,-0.416033,0.310467,0.214085,-10.48747,31.71982)" />
  </g>
</svg>
